# xmcd
#
# Track frame offsets:
#   150
#   13012
#   27277
#   42507
#   54369
#   66647
#   81375
#   94503
#   107352
#   121200
#   134424
#   149035
#   162337
#   175712
#   188908
#   202103
#   214078
#   226928
#   240117
#   252466
#   264024
#   277891
#   290032
#   302067
#   314128
#
# Disc length: 4357 seconds
#
# Revision: 2
# Processed by: cddbd v1.5.1PL0 Copyright (c) Steve Scherf et al.
# Submitted via: Media_Universe 3.0
#
DISCID=6f110319
DTITLE=The Carter Family - Les Triomphes De La Country Music Vol.2
DYEAR=2002
DGENRE=Country
TTITLE0=Keep On The Sunny Side
TTITLE1=Wildwood Flower
TTITLE2=The Wandering Boy
TTITLE3=River Of Jordan
TTITLE4=I Ain't Goin' To Work Tomorrow
TTITLE5=Little Darling Pal Of Mine
TTITLE6=Bury Me Under The Weeping Willow Tree
TTITLE7=Little Log Cabin By The Sea
TTITLE8=Chewing Gum
TTITLE9=John Hardy Was A Desperate Little Man
TTITLE10=Will You Miss Me When I'm Gone
TTITLE11=My Dixie Darling
TTITLE12=Give Me Your Love An I'll Give You Mine
TTITLE13=Are You Lonesome Tonight
TTITLE14=There's No One Like Mother To Me
TTITLE15=Jealous Hearted Me
TTITLE16=In The Shadow Of The Pines
TTITLE17=Buddies In The Saddle
TTITLE18=Heaven's Radio
TTITLE19=Give Him One More As He Goes
TTITLE20=Lonesome For You, Darling
TTITLE21=Blackie's Gunman
TTITLE22=My Home Among The Hills
TTITLE23=Black Jack David
TTITLE24=Bear Creek Blues
EXTD=YEAR: 2002
EXTT0=
EXTT1=
EXTT2=
EXTT3=
EXTT4=
EXTT5=
EXTT6=
EXTT7=
EXTT8=
EXTT9=
EXTT10=
EXTT11=
EXTT12=
EXTT13=
EXTT14=
EXTT15=
EXTT16=
EXTT17=
EXTT18=
EXTT19=
EXTT20=
EXTT21=
EXTT22=
EXTT23=
EXTT24=
PLAYORDER=
